<mxfile host="app.diagrams.net" modified="2020-10-14T04:09:02.507Z" agent="5.0 (Windows NT 10.0; WOW64) AppleWebKit/537.36 (KHTML, like Gecko) Chrome/78.0.3904.108 Safari/537.36" etag="P3tuEHzPzUz5N8JOHC3I" version="13.7.9" type="github">
  <diagram id="VZ9T85CQwIUx952krv9p" name="Page-1">
    <mxGraphModel dx="1374" dy="760" grid="1" gridSize="10" guides="1" tooltips="1" connect="1" arrows="1" fold="1" page="1" pageScale="1" pageWidth="827" pageHeight="1169" math="0" shadow="0">
      <root>
        <mxCell id="0" />
        <mxCell id="1" parent="0" />
        <mxCell id="h1ED0sexOTiC5EnFbjOA-2" value="Linux 服务器&lt;br&gt;&lt;br&gt;" style="rounded=0;whiteSpace=wrap;html=1;" vertex="1" parent="1">
          <mxGeometry x="90" y="80" width="160" height="90" as="geometry" />
        </mxCell>
      </root>
    </mxGraphModel>
  </diagram>
</mxfile>
